<svg id="visual" viewBox="0 0 900 600" width="900" height="600" xmlns="http://www.w3.org/2000/svg" xmlns:xlink="http://www.w3.org/1999/xlink" version="1.1"><rect x="0" y="0" width="900" height="600" fill="#003049"></rect><defs><linearGradient id="grad1_0" x1="33.3%" y1="0%" x2="100%" y2="100%"><stop offset="20%" stop-color="#fcbf49" stop-opacity="1"></stop><stop offset="80%" stop-color="#fcbf49" stop-opacity="1"></stop></linearGradient></defs><defs><linearGradient id="grad1_1" x1="33.3%" y1="0%" x2="100%" y2="100%"><stop offset="20%" stop-color="#fcbf49" stop-opacity="1"></stop><stop offset="80%" stop-color="#003049" stop-opacity="1"></stop></linearGradient></defs><defs><linearGradient id="grad2_0" x1="0%" y1="0%" x2="66.7%" y2="100%"><stop offset="20%" stop-color="#fcbf49" stop-opacity="1"></stop><stop offset="80%" stop-color="#fcbf49" stop-opacity="1"></stop></linearGradient></defs><defs><linearGradient id="grad2_1" x1="0%" y1="0%" x2="66.7%" y2="100%"><stop offset="20%" stop-color="#003049" stop-opacity="1"></stop><stop offset="80%" stop-color="#fcbf49" stop-opacity="1"></stop></linearGradient></defs><g transform="translate(900, 0)"><path d="M0 459.7C-51.7 460.9 -103.4 462 -142.1 437.2C-180.7 412.4 -206.4 361.5 -235.7 324.4C-265 287.3 -297.8 264 -320.4 232.8C-342.9 201.6 -355.1 162.5 -376.6 122.4C-398.1 82.3 -428.9 41.1 -459.7 0L0 0Z" fill="#008767"></path><path d="M0 229.9C-25.8 230.4 -51.7 231 -71 218.6C-90.4 206.2 -103.2 180.8 -117.9 162.2C-132.5 143.7 -148.9 132 -160.2 116.4C-171.5 100.8 -177.6 81.2 -188.3 61.2C-199.1 41.1 -214.5 20.6 -229.9 0L0 0Z" fill="#fcbf49"></path></g><g transform="translate(0, 600)"><path d="M0 -459.7C40.9 -424.7 81.8 -389.7 119 -366.2C156.1 -342.6 189.5 -330.6 230.4 -317.1C271.4 -303.7 319.9 -288.8 357.6 -259.8C395.2 -230.8 422 -187.7 437.2 -142.1C452.4 -96.4 456.1 -48.2 459.7 0L0 0Z" fill="#008767"></path><path d="M0 -229.9C20.5 -212.3 40.9 -194.8 59.5 -183.1C78.1 -171.3 94.7 -165.3 115.2 -158.6C135.7 -151.8 160 -144.4 178.8 -129.9C197.6 -115.4 211 -93.9 218.6 -71C226.2 -48.2 228 -24.1 229.9 0L0 0Z" fill="#fcbf49"></path></g></svg>